<svg xmlns="http://www.w3.org/2000/svg" width="128" height="128" viewBox="0 0 128 128">
  <circle cx="64" cy="64" r="64" fill="#008080" />
  <path fill="#FFF"
    d="M78.91 76.225q.7 0 1.25.54l3.39 3.68q-2.82 3.49-6.93 5.35-4.11 1.85-9.87 1.85-5.15 0-9.26-1.76-4.12-1.76-7.03-4.89-2.91-3.14-4.46-7.49t-1.55-9.51q0-5.21 1.66-9.55 1.66-4.33 4.69-7.47 3.02-3.14 7.21-4.88 4.2-1.74 9.28-1.74 5.06 0 8.98 1.66t6.67 4.35l-2.88 4q-.25.39-.65.67-.4.29-1.11.29-.48 0-.99-.27t-1.12-.67-1.41-.88-1.85-.88q-1.06-.4-2.45-.67-1.39-.28-3.22-.28-3.1 0-5.68 1.11-2.57 1.1-4.43 3.2-1.86 2.09-2.88 5.12-1.02 3.02-1.02 6.89 0 3.91 1.1 6.95t2.99 5.12 4.45 3.18q2.56 1.11 5.5 1.11 1.76 0 3.19-.2 1.42-.19 2.62-.6 1.2-.42 2.27-1.08 1.08-.65 2.13-1.61.32-.29.67-.47.36-.17.74-.17" />
</svg>